<?xml version="1.0" encoding="UTF-8" standalone="no"?>
<!DOCTYPE svg PUBLIC "-//W3C//DTD SVG 1.1//EN" "http://www.w3.org/Graphics/SVG/1.1/DTD/svg11.dtd">
<!-- Created with Vectornator (http://vectornator.io/) -->
<svg height="100%" stroke-miterlimit="10" style="fill-rule:nonzero;clip-rule:evenodd;stroke-linecap:round;stroke-linejoin:round;" version="1.1" viewBox="-3.92037 -2.22045e-14 3003.92 1003.92" width="100%" xml:space="preserve" xmlns="http://www.w3.org/2000/svg" xmlns:vectornator="http://vectornator.io" xmlns:xlink="http://www.w3.org/1999/xlink">
<defs/>
<g id="Capa-1" vectornator:layerName="Capa 1">
<g opacity="1" vectornator:layerName="Grupo 2">
<g opacity="1" vectornator:layerName="Grupo 1">
<path d="M848.876 533.095L894.696 533.095L894.696 391.615L1022.69 391.615C1075.54 391.615 1100.58 413.544 1100.58 443.726L1100.58 497.253C1100.58 512.816 1103.64 524.842 1110.36 533.095L1159.23 533.095C1150.68 522.248 1146.4 510.694 1146.4 496.782L1146.4 443.962C1146.4 410.714 1128.08 384.54 1081.03 373.929L1081.03 378.645C1125.33 365.441 1151.9 334.079 1151.9 296.587C1151.9 244.003 1098.14 204.153 1023.91 204.153L848.876 204.153M894.696 360.725L894.696 235.043L1022.69 235.043C1071.56 235.043 1106.08 261.688 1106.08 297.53C1106.08 332.664 1072.79 360.725 1022.69 360.725" fill="#ffffff" fill-rule="nonzero" opacity="1" stroke="none"/>
<path d="M1245.99 533.095L1540.77 533.095L1540.77 502.205L1291.81 502.205L1291.81 378.645L1516.02 378.645L1516.02 347.756L1291.81 347.756L1291.81 235.043L1530.08 235.043L1530.08 204.153L1245.99 204.153" fill="#ffffff" fill-rule="nonzero" opacity="1" stroke="none"/>
<path d="M1914.66 533.095L1962.32 533.095L1806.22 204.153L1761.62 204.153L1803.17 294.229M1587.81 533.095L1635.77 533.095L1746.96 294.465L1788.5 204.153L1743.9 204.153M1671.81 434.53L1879.23 434.53L1879.23 404.112L1671.81 404.112" fill="#ffffff" fill-rule="nonzero" opacity="1" stroke="none"/>
<path d="M2027.38 533.095L2287.03 533.095L2287.03 502.205L2073.2 502.205L2073.2 204.153L2027.38 204.153" fill="#ffffff" fill-rule="nonzero" opacity="1" stroke="none"/>
<path d="M2427.24 533.095L2473.06 533.095L2473.06 235.043L2613.89 235.043L2613.89 204.153L2286.73 204.153L2286.73 235.043L2427.24 235.043" fill="#ffffff" fill-rule="nonzero" opacity="1" stroke="none"/>
<path d="M2801.44 533.095L2847.26 533.095L2847.26 400.811L3000 204.153L2948.38 204.153L2824.35 363.79L2700.64 204.153L2649.01 204.153L2801.44 400.811" fill="#ffffff" fill-rule="nonzero" opacity="1" stroke="none"/>
</g>
</g>
<path d="M466.762 7.0684C469.446 0.868687 476.157-1.74635 481.752 1.22756L776.966 158.138C782.561 161.112 784.921 168.549 782.237 174.749L782.237 174.749C779.553 180.948 772.842 183.563 767.247 180.589L472.033 23.6787C466.438 20.7048 464.078 13.2681 466.762 7.0684L466.762 7.0684Z" fill="#ffffff" fill-rule="nonzero" opacity="1" stroke="none" vectornator:layerName="Rectángulo 3"/>
<path d="M467.877 156.571C470.561 150.372 477.272 147.757 482.867 150.731L778.081 307.641C783.676 310.615 786.036 318.052 783.352 324.252L783.352 324.252C780.668 330.451 773.957 333.066 768.362 330.092L473.148 173.182C467.553 170.208 465.193 162.771 467.877 156.571L467.877 156.571Z" fill="#ffffff" fill-rule="nonzero" opacity="1" stroke="none" vectornator:layerName="Rectángulo 5"/>
<path d="M466.762 313.793C469.446 307.593 476.157 304.978 481.752 307.952L776.966 464.863C782.561 467.837 784.921 475.273 782.237 481.473L782.237 481.473C779.553 487.673 772.842 490.288 767.247 487.314L472.033 330.403C466.438 327.429 464.078 319.992 466.762 313.793L466.762 313.793Z" fill="#ffffff" fill-rule="nonzero" opacity="1" stroke="none" vectornator:layerName="Rectángulo 7"/>
<path d="M467.877 466.875C470.561 460.676 477.272 458.061 482.867 461.035L778.081 617.945C783.676 620.919 786.036 628.356 783.352 634.556L783.352 634.556C780.668 640.755 773.957 643.37 768.362 640.396L473.148 483.486C467.553 480.512 465.193 473.075 467.877 466.875L467.877 466.875Z" fill="#ffffff" fill-rule="nonzero" opacity="1" stroke="none" vectornator:layerName="Rectángulo 9"/>
<path d="M467.877 622.049C470.561 615.849 477.272 613.234 482.867 616.208L778.081 773.119C783.676 776.093 786.036 783.529 783.352 789.729L783.352 789.729C780.668 795.929 773.957 798.544 768.362 795.57L473.148 638.659C467.553 635.685 465.193 628.249 467.877 622.049L467.877 622.049Z" fill="#ffffff" fill-rule="nonzero" opacity="1" stroke="none" vectornator:layerName="Rectángulo 2"/>
<path d="M0.358005 384.075C0.987052 385.074 2.22848 385.32 3.13081 384.623L464.801 28C465.703 27.303 465.925 25.9274 465.296 24.9276L465.296 24.9276C464.667 23.9277 463.425 23.6823 462.523 24.3793L0.852831 381.002C-0.0495018 381.699-0.271043 383.075 0.358005 384.075L0.358005 384.075Z" fill="#ffffff" fill-rule="nonzero" opacity="1" stroke="#ffffff" stroke-linecap="butt" stroke-linejoin="round" stroke-width="7.84075" vectornator:layerName="Rectángulo 4"/>
<path d="M1.47324 533.578C2.10228 534.577 3.34371 534.823 4.24604 534.126L465.916 177.503C466.818 176.806 467.04 175.43 466.411 174.431L466.411 174.431C465.782 173.431 464.54 173.185 463.638 173.882L1.96806 530.505C1.06573 531.202 0.844188 532.578 1.47324 533.578L1.47324 533.578Z" fill="#ffffff" fill-rule="nonzero" opacity="1" stroke="#ffffff" stroke-linecap="butt" stroke-linejoin="round" stroke-width="7.84075" vectornator:layerName="Rectángulo 6"/>
<path d="M0.358005 690.799C0.987052 691.799 2.22848 692.044 3.13081 691.347L464.801 334.724C465.703 334.027 465.925 332.652 465.296 331.652L465.296 331.652C464.667 330.652 463.425 330.407 462.523 331.104L0.852831 687.726C-0.0495018 688.423-0.271043 689.799 0.358005 690.799L0.358005 690.799Z" fill="#ffffff" fill-rule="nonzero" opacity="1" stroke="#ffffff" stroke-linecap="butt" stroke-linejoin="round" stroke-width="7.84075" vectornator:layerName="Rectángulo 8"/>
<path d="M1.47324 843.882C2.10228 844.881 3.34371 845.127 4.24604 844.43L465.916 487.807C466.818 487.11 467.04 485.734 466.411 484.735L466.411 484.735C465.782 483.735 464.54 483.489 463.638 484.186L1.96806 840.809C1.06573 841.506 0.844188 842.882 1.47324 843.882L1.47324 843.882Z" fill="#ffffff" fill-rule="nonzero" opacity="1" stroke="#ffffff" stroke-linecap="butt" stroke-linejoin="round" stroke-width="7.84075" vectornator:layerName="Rectángulo 10"/>
<path d="M1.47324 999.055C2.10228 1000.05 3.34371 1000.3 4.24604 999.603L465.916 642.98C466.818 642.283 467.04 640.908 466.411 639.908L466.411 639.908C465.782 638.908 464.54 638.663 463.638 639.36L1.96806 995.983C1.06573 996.68 0.844188 998.055 1.47324 999.055L1.47324 999.055Z" fill="#ffffff" fill-rule="nonzero" opacity="1" stroke="#ffffff" stroke-linecap="butt" stroke-linejoin="round" stroke-width="7.84075" vectornator:layerName="Rectángulo 1"/>
<g opacity="1" vectornator:layerName="Grupo 3">
<path d="M848.876 760.908L916.59 760.908C947.316 760.908 966.911 744.055 966.911 722.262C966.911 704.15 953.23 691.462 930.388 686.813L930.388 689.912C949.751 684.585 959.375 672.866 959.375 658.918C959.375 639.838 941.287 625.793 913.111 625.793L848.876 625.793L848.876 760.908ZM866.268 748.123L866.268 695.239L912.764 695.239C933.75 695.239 949.519 705.312 949.519 721.584C949.519 737.178 934.91 748.123 913.111 748.123L866.268 748.123ZM866.268 682.745L866.268 638.482L911.952 638.482C931.199 638.482 941.983 647.586 941.983 659.693C941.983 673.059 928.88 682.745 912.764 682.745L866.268 682.745Z" fill="#ffffff" fill-rule="nonzero" opacity="1" stroke="none"/>
<path d="M1029.2 760.908L1046.6 760.908L1046.6 625.793L1029.2 625.793L1029.2 760.908Z" fill="#ffffff" fill-rule="nonzero" opacity="1" stroke="none"/>
<path d="M1117.24 760.908L1229.13 760.908L1229.13 748.22L1134.63 748.22L1134.63 697.467L1219.74 697.467L1219.74 684.779L1134.63 684.779L1134.63 638.482L1225.07 638.482L1225.07 625.793L1117.24 625.793L1117.24 760.908Z" fill="#ffffff" fill-rule="nonzero" opacity="1" stroke="none"/>
<path d="M1293.04 760.908L1309.74 760.908L1309.74 639.741L1307.07 639.741L1392.41 760.908L1415.95 760.908L1415.95 625.793L1399.25 625.793L1399.25 747.154L1402.04 747.154L1316.58 625.793L1293.04 625.793L1293.04 760.908Z" fill="#ffffff" fill-rule="nonzero" opacity="1" stroke="none"/>
<path d="M1486.59 760.908L1598.48 760.908L1598.48 748.22L1503.98 748.22L1503.98 697.467L1589.09 697.467L1589.09 684.779L1503.98 684.779L1503.98 638.482L1594.42 638.482L1594.42 625.793L1486.59 625.793L1486.59 760.908Z" fill="#ffffff" fill-rule="nonzero" opacity="1" stroke="none"/>
<path d="M1715.5 763.426C1744.72 763.426 1772.43 752.288 1772.43 724.393C1772.43 699.501 1750.29 691.752 1715.96 683.423C1695.33 678.483 1675.96 674.125 1675.96 657.853C1675.96 643.421 1691.27 636.06 1711.91 636.06C1734.63 636.06 1748.78 644.874 1750.75 662.115L1768.03 662.115C1765.94 636.835 1746 623.275 1712.6 623.275C1684.08 623.275 1658.57 633.155 1658.57 658.143C1658.57 685.554 1689.53 692.334 1711.56 697.37C1736.72 703.278 1755.04 708.509 1755.04 725.265C1755.04 741.827 1737.3 750.641 1715.5 750.641C1690.11 750.641 1672.72 738.728 1671.09 718.872L1653.82 718.872C1655.09 746.186 1678.51 763.426 1715.5 763.426Z" fill="#ffffff" fill-rule="nonzero" opacity="1" stroke="none"/>
<path d="M1922.18 760.908L1939.57 760.908L1939.57 702.794L1988.15 702.794C2008.21 702.794 2017.72 711.802 2017.72 724.199L2017.72 746.186C2017.72 752.578 2018.88 757.518 2021.43 760.908L2039.98 760.908C2036.73 756.452 2035.11 751.706 2035.11 745.992L2035.11 724.296C2035.11 710.639 2028.15 699.888 2010.3 695.53L2010.3 697.467C2027.11 692.043 2037.2 679.161 2037.2 663.761C2037.2 642.162 2016.79 625.793 1988.62 625.793L1922.18 625.793L1922.18 760.908ZM1939.57 690.106L1939.57 638.482L1988.15 638.482C2006.7 638.482 2019.81 649.426 2019.81 664.148C2019.81 678.58 2007.17 690.106 1988.15 690.106L1939.57 690.106Z" fill="#ffffff" fill-rule="nonzero" opacity="1" stroke="none"/>
<path d="M2217.06 760.908L2235.15 760.908L2175.9 625.793L2158.97 625.793L2174.74 662.793L2217.06 760.908ZM2093 760.908L2111.2 760.908L2153.41 662.889L2169.18 625.793L2152.25 625.793L2093 760.908ZM2124.88 720.422L2203.61 720.422L2203.61 707.927L2124.88 707.927L2124.88 720.422Z" fill="#ffffff" fill-rule="nonzero" opacity="1" stroke="none"/>
<path d="M2293.15 760.908L2310.55 760.908L2310.55 625.793L2293.15 625.793L2293.15 760.908ZM2294.2 615.042L2310.89 615.042L2337.45 588.02L2315.88 588.02L2294.2 615.042Z" fill="#ffffff" fill-rule="nonzero" opacity="1" stroke="none"/>
<path d="M2446.58 763.426C2483.8 763.426 2508.27 743.958 2514.99 713.545L2497.48 713.545C2492.73 734.466 2473.83 750.447 2446.93 750.447C2412.38 750.447 2392.43 724.006 2392.43 692.334C2392.43 661.34 2411.8 636.157 2448.67 636.157C2472.55 636.157 2489.71 646.714 2497.14 665.601L2514.64 665.601C2506.06 638.288 2481.25 623.275 2448.09 623.275C2402.99 623.275 2374.81 651.267 2374.81 692.915C2374.81 732.82 2400.43 763.426 2446.58 763.426Z" fill="#ffffff" fill-rule="nonzero" opacity="1" stroke="none"/>
<path d="M2576.7 760.908L2688.59 760.908L2688.59 748.22L2594.1 748.22L2594.1 697.467L2679.2 697.467L2679.2 684.779L2594.1 684.779L2594.1 638.482L2684.54 638.482L2684.54 625.793L2576.7 625.793L2576.7 760.908Z" fill="#ffffff" fill-rule="nonzero" opacity="1" stroke="none"/>
<path d="M2805.62 763.426C2834.83 763.426 2862.55 752.288 2862.55 724.393C2862.55 699.501 2840.4 691.752 2806.08 683.423C2785.44 678.483 2766.08 674.125 2766.08 657.853C2766.08 643.421 2781.38 636.06 2802.02 636.06C2824.75 636.06 2838.89 644.874 2840.86 662.115L2858.14 662.115C2856.05 636.835 2836.11 623.275 2802.72 623.275C2774.19 623.275 2748.68 633.155 2748.68 658.143C2748.68 685.554 2779.64 692.334 2801.67 697.37C2826.83 703.278 2845.15 708.509 2845.15 725.265C2845.15 741.827 2827.41 750.641 2805.62 750.641C2780.22 750.641 2762.83 738.728 2761.21 718.872L2743.93 718.872C2745.21 746.186 2768.63 763.426 2805.62 763.426Z" fill="#ffffff" fill-rule="nonzero" opacity="1" stroke="none"/>
</g>
</g>
</svg>
